PathFileType	4	(X/Y/Z)	S01_0002_Gait_markers.trc
DataRate	CameraRate	NumFrames	NumMarkers	Units	OrigDataRate	OrigDataStartFrame	OrigNumFrames
250.000000	250.000000	4	54	mm	250.000000	0	330
Frame#	Time	HEAD_ANT			R_HEAD			L_HEAD			C7			R_BACK			L_BACK			STERNUM			R_ACROMION			R_HUM_PROX			R_HUM_ANT			R_HUM_POST			R_ELBOW_LAT			R_ELBOW_MED			R_FOREARM			R_WIRST_LAT			R_WRITS_MED			R_HAND			L_ACROMION			L_HUM_PROX			L_HUM_ANT			L_HUM_POST			L_ELBOW_LAT			L_ELBOW_MED			L_FOREARM			L_WRIST_LAT			L_WIRST_MED			L_HAND			R_ILIAC			SACRUM			L_ILIAC			R_GTROCH			R_THIGH__1			R_THIGH_2			R_THIGH_3			R_THIGH_4			R_SHANK_1			R_SHANK_2			R_SHANK_3			R_SHANK_4			R_HEEL			R_FOOT_LAT			R_FOOT_MED			L_GTROCH			L_THIGH_1			L_THIGH_2			L_THIGH_3			L_THIGH_4			L_SHANK_1			L_SHANK_2			L_SHANK_3			L_SHANK_4			L_HEEL			L_FOOT_LAT			L_FOOT_MED			
		X1	Y1	Z1	X2	Y2	Z2	X3	Y3	Z3	X4	Y4	Z4	X5	Y5	Z5	X6	Y6	Z6	X7	Y7	Z7	X8	Y8	Z8	X9	Y9	Z9	X10	Y10	Z10	X11	Y11	Z11	X12	Y12	Z12	X13	Y13	Z13	X14	Y14	Z14	X15	Y15	Z15	X16	Y16	Z16	X17	Y17	Z17	X18	Y18	Z18	X19	Y19	Z19	X20	Y20	Z20	X21	Y21	Z21	X22	Y22	Z22	X23	Y23	Z23	X24	Y24	Z24	X25	Y25	Z25	X26	Y26	Z26	X27	Y27	Z27	X28	Y28	Z28	X29	Y29	Z29	X30	Y30	Z30	X31	Y31	Z31	X32	Y32	Z32	X33	Y33	Z33	X34	Y34	Z34	X35	Y35	Z35	X36	Y36	Z36	X37	Y37	Z37	X38	Y38	Z38	X39	Y39	Z39	X40	Y40	Z40	X41	Y41	Z41	X42	Y42	Z42	X43	Y43	Z43	X44	Y44	Z44	X45	Y45	Z45	X46	Y46	Z46	X47	Y47	Z47	X48	Y48	Z48	X49	Y49	Z49	X50	Y50	Z50	X51	Y51	Z51	X52	Y52	Z52	X53	Y53	Z53	X54	Y54	Z54	

1	0	181.4948425292969	1734.553100585938	-324.7114257812496	122.632209777832	1684.712890625	-246.7147827148434	122.0545196533203	1685.971313476562	-394.3685913085934	-19.92691993713379	1517.560424804688	-323.6031799316403	-92.76249694824219	1321.007202148438	-253.980041503906	-89.74079895019531	1322.516967773438	-397.5748291015622	158.5971527099609	1354.878662109375	-316.5234680175778	52.94760131835938	1473.062255859375	-147.6202850341793	-1.564867854118347	1319.961669921875	-51.77266693115205	52.06219100952148	1230.458374023438	-38.52950668334934	-69.83258056640625	1242.420166015625	-41.83594894409152	-30.76800155639648	1133.9306640625	-24.53354835510229	-43.80800628662109	1126.199584960938	-103.8649749755857	58.77441024780273	945.027099609375	-6.657122611999302	95.61466217041016	874.6100463867188	-42.64948654174786	25.00654602050781	857.2144775390625	-6.20760440826397	90.19741058349609	789.4054565429688	17.52381134033221	63.9618034362793	1471.061157226562	-487.3591308593747	55.65527725219727	1305.690673828125	-585.4383544921872	122.2534255981445	1228.534423828125	-577.307189941406	4.12600040435791	1225.20654296875	-615.2294921874998	68.98528289794922	1124.513793945313	-618.8192749023435	15.63876152038574	1113.048217773438	-564.2784423828123	208.5343322753906	977.3395385742189	-578.6831054687498	251.8027496337891	931.3738403320314	-520.0526123046873	214.9116516113281	893.5617065429689	-580.8599853515623	301.510009765625	859.0077514648439	-559.1503295898435	58.79776382446289	1069.687744140625	-141.7159881591795	-75.72801971435547	1040.442626953125	-296.9714050292966	34.39212036132812	1060.136108398438	-482.7855224609373	26.43125534057617	914.9175415039062	-121.809371948242	134.5411224365234	643.5010375976562	-142.109420776367	184.1807098388672	676.1907348632812	-136.7686767578124	218.2110290527344	579.49072265625	-172.5340423583983	154.6835632324219	566.3630981445312	-162.5001525878905	208.5239410400391	350.2654724121094	-158.2755737304687	267.05224609375	346.7674255371094	-172.9718780517577	287.4424743652344	263.7180786132813	-191.9946746826171	225.0737762451172	251.0445404052735	-180.6741027832031	252.0581665039062	40.12704467773443	-268.1381530761719	415.4639892578125	51.61849594116215	-182.93701171875	459.5264892578125	86.71508026123053	-270.3583374023438	-13.20845794677734	954.3417968750001	-480.7655944824216	7.802835464477539	663.1316528320314	-467.4793395996092	-41.7779426574707	694.8074951171876	-476.1974487304686	-73.86573791503906	598.6813354492189	-440.3951110839843	-10.61932563781738	587.7063598632814	-441.2109069824218	-119.3484420776367	332.7940673828126	-418.7717895507812	-180.2660675048828	327.1768188476564	-414.7818603515624	-202.7305450439453	244.5611267089845	-393.8669128417968	-138.3740386962891	234.9878997802735	-393.2687072753906	-277.1718444824219	68.84517669677741	-312.6830749511719	-112.522102355957	18.67521667480478	-395.4964904785156	-67.50637054443359	29.60171699523932	-293.6831359863281	
2	0.004	186.9880676269531	1733.491821289062	-324.0556335449215	128.15478515625	1683.455932617188	-246.1638336181637	127.4394683837891	1685.042846679688	-394.0080871582027	-14.57334041595459	1516.384887695312	-323.5590515136715	-87.36116790771484	1319.7685546875	-254.013748168945	-84.41649627685547	1321.372802734375	-397.4853515624997	163.8932037353516	1353.478515625	-315.8554687499997	58.22592926025391	1471.860107421875	-147.4144744873044	3.424142837524414	1318.693481445312	-51.6717872619626	56.83316040039062	1229.123779296875	-38.31352996826145	-64.95298004150391	1241.20361328125	-42.09385299682589	-25.77188301086426	1132.599243164062	-24.59068870544408	-38.63469314575195	1124.77880859375	-103.8566055297849	63.5489501953125	943.7152709960938	-6.482277393340855	100.4730224609375	873.16162109375	-42.41123580932598	29.63994026184082	855.98486328125	-6.378283977508355	94.770751953125	788.0257568359375	17.6119804382326	69.48239135742188	1469.92724609375	-487.1647033691403	61.55539321899414	1304.692749023438	-585.1551513671872	128.1920318603516	1227.655029296875	-577.2025146484373	10.03151988983154	1224.033569335938	-615.239318847656	75.18471527099609	1123.384155273438	-618.8933105468748	21.83726501464844	1111.832763671875	-564.4345092773435	214.993408203125	976.7700805664064	-578.4855346679685	258.2337951660156	930.7312011718751	-519.7447509765623	221.6123504638672	892.8455200195314	-580.6571044921873	308.2580261230469	858.6124267578126	-558.731750488281	64.36298370361328	1068.15673828125	-141.645553588867	-70.37239074707031	1039.418579101562	-296.8986206054685	39.74606323242188	1058.904052734375	-482.9518432617185	31.75554275512695	913.4369506835938	-122.0926666259764	139.7629241943359	642.0110473632812	-142.5517425537108	189.2892608642578	674.8449096679688	-137.103317260742	223.0428771972656	578.34228515625	-173.6141052246092	160.0015411376953	565.0505981445312	-162.9319305419921	217.0990905761719	349.5904846191407	-158.6596527099609	275.5700378417969	347.0716247558594	-173.5739440917968	297.302734375	264.2122802734376	-192.6291351318359	235.2544250488281	250.5522918701172	-181.1527709960937	265.5292663574219	40.29506683349615	-268.3275451660156	429.43408203125	54.26021957397465	-184.9339447021484	472.2941284179688	89.8714218139649	-272.5176086425781	-8.134921073913574	953.6791381835939	-480.791564941406	11.55315589904785	662.4368896484376	-467.5289611816405	-37.85651779174805	694.2268066406251	-476.0299682617186	-70.39890289306641	598.3187866210939	-440.7529907226561	-7.232517242431641	587.2301635742189	-441.5850219726561	-117.4139251708984	332.7299804687501	-418.9035644531249	-178.5241394042969	327.428680419922	-415.0538940429687	-201.3355407714844	244.9912261962891	-393.9660034179687	-137.1761779785156	234.9685668945313	-393.3869934082031	-276.933837890625	69.70052337646491	-312.8949890136719	-112.5759963989258	18.65182495117196	-395.5123596191406	-67.52010345458984	29.59172439575202	-293.73681640625	
3	0.008	192.3687591552734	1732.466796875	-323.425140380859	133.7717437744141	1682.20458984375	-245.7113189697262	132.8962554931641	1683.907592773438	-393.5663757324215	-9.200007438659668	1515.18798828125	-323.409759521484	-81.79726409912109	1318.435180664062	-254.1930847167966	-79.10776519775391	1320.18359375	-397.4106140136716	169.3423004150391	1352.133422851562	-316.003723144531	63.5437126159668	1470.443359375	-147.1156158447262	8.214116096496582	1317.26904296875	-52.0583724975583	61.81945419311523	1227.7158203125	-38.02584075927707	-59.890625	1239.8564453125	-42.11599349975558	-20.65682792663574	1131.270141601562	-24.79406929016088	-33.69352722167969	1123.42919921875	-104.1184234619138	68.30200958251953	942.277099609375	-6.268385887145786	105.4493789672852	871.9299926757812	-42.03240203857403	34.36207962036133	854.4884033203125	-6.508697986602593	99.3751220703125	786.6592407226562	17.76559448242205	75.07554626464844	1468.853637695312	-487.1842041015622	67.29356384277344	1303.55224609375	-585.1069946289059	134.0079650878906	1226.616943359375	-577.0992431640623	15.80825996398926	1222.979370117188	-615.4714355468748	81.30750274658203	1122.433715820313	-618.9957885742185	27.95363807678223	1110.621459960938	-564.5775756835935	221.3887023925781	976.1413574218751	-578.2524414062498	264.5487976074219	930.2222900390626	-519.454406738281	228.3091735839844	892.2481079101564	-580.4531249999998	314.8800048828125	858.1979980468751	-558.2586669921873	70.45954132080078	1066.748779296875	-141.5085296630857	-64.63814544677734	1038.306030273438	-296.6482238769529	45.37035369873047	1057.6171875	-482.9879760742185	37.1484260559082	911.9457397460938	-122.3712921142576	144.9373168945312	640.69091796875	-142.6955261230467	194.4404449462891	673.4239501953125	-137.363815307617	228.3610534667969	577.454833984375	-173.955841064453	165.2555084228516	563.7433471679688	-163.3849182128905	225.5022277832031	348.5396423339844	-159.178741455078	284.0525512695312	347.1549987792969	-174.2443084716796	307.0027465820312	264.9681396484376	-193.2892913818359	245.2667083740234	250.2989196777344	-181.1576385498046	278.6935119628906	40.12149810791021	-268.8457946777344	443.2824401855469	57.10249328613286	-186.7678680419922	484.5444030761719	93.20422363281256	-274.8075256347656	-2.838134765625	952.8234252929689	-480.8136901855466	15.43715572357178	661.7788085937501	-467.9342956542967	-33.97662353515625	693.7994995117189	-476.416778564453	-66.96337890625	597.9575805664064	-440.7102661132811	-3.743946552276611	586.5835571289064	-441.7332458496093	-115.5549468994141	332.6791992187501	-419.8232116699218	-176.5123596191406	327.6639709472657	-415.4688415527343	-199.7828674316406	245.675750732422	-394.1880493164062	-135.8760070800781	234.9520568847657	-393.3004150390624	-276.68505859375	70.50470733642585	-313.1090087890625	-112.6336059570312	18.59955024719247	-395.5579223632812	-67.53677368164062	29.54924964904792	-293.6660766601562	
4	0.012	197.9585571289062	1731.26611328125	-322.8013305664059	139.13134765625	1680.914794921875	-245.2601928710934	138.2982635498047	1682.965942382812	-393.0462951660152	-3.801898956298828	1513.960327148438	-323.1340332031247	-76.38024139404297	1317.068969726562	-254.2111816406247	-73.64045715332031	1319.039306640625	-397.2667236328122	174.734375	1350.849731445312	-315.8225097656247	68.76396942138672	1469.17578125	-147.0361175537106	13.46907424926758	1315.88720703125	-51.83453369140596	66.77714538574219	1226.43212890625	-37.79223632812473	-54.90554046630859	1238.591674804688	-42.31890487670871	-15.44903659820557	1129.754272460938	-24.70151329040502	-28.41330528259277	1122.106689453125	-104.0421066284177	73.03052520751953	940.9224243164062	-6.135065555572301	110.4249420166016	870.5620727539062	-41.75041961669903	39.27766799926758	853.2086181640625	-6.699265956878473	103.9449157714844	785.1217041015625	17.98909187316912	80.48338317871094	1467.738159179688	-487.047943115234	73.14167785644531	1302.604370117188	-585.1929321289059	139.7558441162109	1225.685546875	-576.9661865234373	21.81131362915039	1221.836181640625	-615.3290405273435	87.47725677490234	1121.393188476563	-619.0204467773435	34.08023071289062	1109.322387695313	-564.7592773437498	227.7865600585938	975.4478149414064	-577.8347167968748	270.9740600585938	929.5324707031251	-519.129455566406	234.8418426513672	891.5759277343751	-580.292053222656	321.4329223632812	857.8335571289064	-557.987121582031	75.88703918457031	1065.200317382812	-141.381637573242	-59.38047790527344	1037.321166992188	-296.5809020996091	50.99076461791992	1056.498291015625	-483.1744079589841	42.62878799438477	910.5064086914062	-122.6165924072264	150.2263336181641	639.5098876953125	-142.5013580322264	199.6044769287109	672.325439453125	-137.6035003662108	233.7647857666016	576.0635986328125	-174.5426483154295	169.9587249755859	561.68798828125	-166.2397003173827	233.8076477050781	347.8664550781251	-159.9090423583984	292.2833557128906	347.1999511718751	-174.9825134277343	316.4253234863281	265.3057250976563	-194.224868774414	255.2552032470703	249.8834686279297	-181.221450805664	291.4537963867188	40.34809875488287	-269.3543395996094	456.4497375488281	59.54176330566411	-188.6417541503906	496.4888916015625	96.30010986328131	-276.9396667480469	2.161649703979492	952.2501831054689	-480.9853515624998	19.25963401794434	660.9388427734376	-468.3436889648436	-30.09527206420898	693.1577758789064	-476.2211914062498	-63.3049430847168	597.6639404296876	-441.125518798828	-0.1488536447286606	586.1519165039064	-442.0697631835936	-113.3989410400391	332.619110107422	-419.7890014648437	-174.5589599609375	327.9145507812501	-415.5624999999999	-198.2289428710938	246.1032257080079	-394.6408081054687	-134.4987487792969	234.962860107422	-393.2871704101562	-276.477294921875	71.58249664306648	-313.4581909179688	-112.66943359375	18.58723831176767	-395.5757446289062	-67.81815338134766	29.26586914062506	-293.3349304199219	
